<svg data-v-423bf9ae="" xmlns="http://www.w3.org/2000/svg" viewBox="0 0 92.71137823879144 60" class="font"><!----><!----><defs data-v-423bf9ae=""><linearGradient data-v-423bf9ae="" gradientTransform="rotate(25)" id="fd1a352d-b942-477b-bb21-76f0708c7abc" x1="0%" y1="0%" x2="100%" y2="0%"><stop data-v-423bf9ae="" offset="0%" style="stop-color: rgb(0, 118, 221); stop-opacity: 1;"></stop><stop data-v-423bf9ae="" offset="100%" style="stop-color: rgb(230, 0, 233); stop-opacity: 1;"></stop></linearGradient></defs><g data-v-423bf9ae="" id="a1a81b2e-0299-4f90-b033-a7185deed231" fill="url(#fd1a352d-b942-477b-bb21-76f0708c7abc)" transform="matrix(4.373178061430253,0,0,4.373178061430253,-2.448978305339921,-15.306124168680206)"><path d="M9.20 8.90L9.20 9.51L8.22 9.51L8.22 13.52L8.22 13.52Q8.22 14.45 7.90 15.15L7.90 15.15L7.90 15.15Q7.59 15.84 7.02 16.30L7.02 16.30L7.02 16.30Q6.46 16.76 5.69 16.99L5.69 16.99L5.69 16.99Q4.92 17.22 4.01 17.22L4.01 17.22L4.01 17.22Q3.66 17.22 3.34 17.16L3.34 17.16L3.34 17.16Q3.01 17.10 2.77 17.00L2.77 17.00L2.77 17.00Q2.52 16.90 2.38 16.76L2.38 16.76L2.38 16.76Q2.23 16.62 2.23 16.45L2.23 16.45L2.23 16.45Q2.23 16.32 2.26 16.20L2.26 16.20L2.26 16.20Q2.30 16.07 2.37 15.97L2.37 15.97L2.37 15.97Q2.43 15.87 2.53 15.80L2.53 15.80L2.53 15.80Q2.63 15.74 2.75 15.74L2.75 15.74L2.75 15.74Q2.84 15.74 2.89 15.81L2.89 15.81L2.89 15.81Q2.95 15.89 3.01 16.00L3.01 16.00L3.01 16.00Q3.07 16.11 3.15 16.24L3.15 16.24L3.15 16.24Q3.23 16.37 3.36 16.48L3.36 16.48L3.36 16.48Q3.48 16.59 3.66 16.67L3.66 16.67L3.66 16.67Q3.83 16.74 4.10 16.74L4.10 16.74L4.10 16.74Q4.63 16.74 5.03 16.55L5.03 16.55L5.03 16.55Q5.43 16.36 5.70 16.01L5.70 16.01L5.70 16.01Q5.97 15.67 6.11 15.19L6.11 15.19L6.11 15.19Q6.25 14.70 6.25 14.12L6.25 14.12L6.25 13.71L6.25 13.71Q5.97 13.77 5.68 13.80L5.68 13.80L5.68 13.80Q5.39 13.83 5.02 13.83L5.02 13.83L5.02 13.83Q4.09 13.83 3.28 13.55L3.28 13.55L3.28 13.55Q2.47 13.26 1.86 12.67L1.86 12.67L1.86 12.67Q1.26 12.07 0.91 11.15L0.91 11.15L0.91 11.15Q0.56 10.23 0.56 8.95L0.56 8.95L0.56 8.95Q0.56 8.06 0.75 7.31L0.75 7.31L0.75 7.31Q0.94 6.56 1.29 5.95L1.29 5.95L1.29 5.95Q1.63 5.35 2.10 4.89L2.10 4.89L2.10 4.89Q2.56 4.43 3.11 4.12L3.11 4.12L3.11 4.12Q3.66 3.81 4.28 3.66L4.28 3.66L4.28 3.66Q4.89 3.50 5.52 3.50L5.52 3.50L5.52 3.50Q6.11 3.50 6.62 3.61L6.62 3.61L6.62 3.61Q7.14 3.73 7.52 3.94L7.52 3.94L7.52 3.94Q7.90 4.16 8.11 4.47L8.11 4.47L8.11 4.47Q8.33 4.79 8.33 5.20L8.33 5.20L8.33 5.20Q8.33 5.38 8.27 5.58L8.27 5.58L8.27 5.58Q8.20 5.78 8.08 5.95L8.08 5.95L8.08 5.95Q7.96 6.12 7.77 6.22L7.77 6.22L7.77 6.22Q7.58 6.33 7.33 6.33L7.33 6.33L7.33 6.33Q7.04 6.33 6.90 6.16L6.90 6.16L6.90 6.16Q6.76 6.00 6.69 5.75L6.69 5.75L6.69 5.75Q6.62 5.50 6.58 5.21L6.58 5.21L6.58 5.21Q6.55 4.92 6.47 4.67L6.47 4.67L6.47 4.67Q6.38 4.42 6.22 4.26L6.22 4.26L6.22 4.26Q6.05 4.09 5.73 4.09L5.73 4.09L5.73 4.09Q5.49 4.09 5.19 4.20L5.19 4.20L5.19 4.20Q4.89 4.32 4.58 4.57L4.58 4.57L4.58 4.57Q4.27 4.82 3.98 5.21L3.98 5.21L3.98 5.21Q3.68 5.59 3.45 6.13L3.45 6.13L3.45 6.13Q3.22 6.67 3.08 7.37L3.08 7.37L3.08 7.37Q2.94 8.07 2.94 8.95L2.94 8.95L2.94 8.95Q2.94 9.92 3.06 10.61L3.06 10.61L3.06 10.61Q3.19 11.29 3.39 11.75L3.39 11.75L3.39 11.75Q3.59 12.22 3.85 12.49L3.85 12.49L3.85 12.49Q4.12 12.76 4.40 12.89L4.40 12.89L4.40 12.89Q4.68 13.03 4.95 13.07L4.95 13.07L4.95 13.07Q5.23 13.10 5.46 13.10L5.46 13.10L5.46 13.10Q5.70 13.10 5.90 13.07L5.90 13.07L5.90 13.07Q6.10 13.03 6.25 12.96L6.25 12.96L6.25 9.51L5.05 9.51L5.05 8.90L9.20 8.90ZM17.60 13.83L17.60 13.83L17.60 13.83Q17.03 13.83 16.75 13.59L16.75 13.59L16.75 13.59Q16.48 13.35 16.48 12.82L16.48 12.82L16.48 4.14L16.48 4.14Q16.26 4.16 15.94 4.22L15.94 4.22L15.94 4.22Q15.61 4.28 15.26 4.39L15.26 4.39L15.26 4.39Q14.90 4.50 14.55 4.65L14.55 4.65L14.55 4.65Q14.19 4.81 13.91 5.01L13.91 5.01L13.91 5.01Q13.63 5.21 13.45 5.46L13.45 5.46L13.45 5.46Q13.28 5.71 13.28 6.02L13.28 6.02L13.28 6.02Q13.28 6.24 13.33 6.37L13.33 6.37L13.33 6.37Q13.39 6.50 13.47 6.57L13.47 6.57L13.47 6.57Q13.54 6.63 13.62 6.65L13.62 6.65L13.62 6.65Q13.70 6.67 13.73 6.67L13.73 6.67L13.73 6.67Q13.90 6.67 14.01 6.61L14.01 6.61L14.01 6.61Q14.12 6.55 14.21 6.48L14.21 6.48L14.21 6.48Q14.30 6.42 14.38 6.36L14.38 6.36L14.38 6.36Q14.46 6.30 14.56 6.30L14.56 6.30L14.56 6.30Q14.64 6.30 14.73 6.34L14.73 6.34L14.73 6.34Q14.83 6.38 14.91 6.46L14.91 6.46L14.91 6.46Q14.98 6.54 15.04 6.68L15.04 6.68L15.04 6.68Q15.09 6.81 15.09 7L15.09 7L15.09 7Q15.09 7.27 14.99 7.47L14.99 7.47L14.99 7.47Q14.88 7.67 14.71 7.80L14.71 7.80L14.71 7.80Q14.55 7.94 14.33 8.00L14.33 8.00L14.33 8.00Q14.12 8.07 13.90 8.07L13.90 8.07L13.90 8.07Q13.58 8.07 13.31 7.95L13.31 7.95L13.31 7.95Q13.05 7.84 12.87 7.64L12.87 7.64L12.87 7.64Q12.68 7.44 12.58 7.18L12.58 7.18L12.58 7.18Q12.49 6.91 12.49 6.61L12.49 6.61L12.49 6.61Q12.49 5.81 12.93 5.23L12.93 5.23L12.93 5.23Q13.37 4.64 14.14 4.26L14.14 4.26L14.14 4.26Q14.90 3.87 15.92 3.68L15.92 3.68L15.92 3.68Q16.94 3.50 18.10 3.50L18.10 3.50L18.10 3.50Q18.66 3.50 19.18 3.51L19.18 3.51L19.18 3.51Q19.71 3.52 20.14 3.54L20.14 3.54L20.14 3.54Q20.58 3.56 20.89 3.59L20.89 3.59L20.89 3.59Q21.21 3.62 21.35 3.65L21.35 3.65L21.35 3.65Q21.49 3.68 21.57 3.75L21.57 3.75L21.57 3.75Q21.65 3.81 21.69 3.90L21.69 3.90L21.69 3.90Q21.73 3.98 21.75 4.07L21.75 4.07L21.75 4.07Q21.76 4.16 21.76 4.26L21.76 4.26L21.76 4.26Q21.76 4.33 21.74 4.43L21.74 4.43L21.74 4.43Q21.72 4.53 21.68 4.62L21.68 4.62L21.68 4.62Q21.64 4.71 21.57 4.77L21.57 4.77L21.57 4.77Q21.51 4.83 21.42 4.83L21.42 4.83L21.42 4.83Q21.37 4.83 21.31 4.79L21.31 4.79L21.31 4.79Q21.25 4.74 21.15 4.67L21.15 4.67L21.15 4.67Q21.05 4.60 20.87 4.51L20.87 4.51L20.87 4.51Q20.70 4.42 20.42 4.35L20.42 4.35L20.42 4.35Q20.13 4.27 19.72 4.21L19.72 4.21L19.72 4.21Q19.30 4.15 18.72 4.13L18.72 4.13L18.72 12.82L18.72 12.82Q18.72 13.35 18.44 13.59L18.44 13.59L18.44 13.59Q18.17 13.83 17.60 13.83Z"></path></g><!----><!----></svg>